Coordinates
version=1
nRows=17
nColumns=36
inDegrees=yes

Units are S.I. units (second, meters, Newtons, ...)
If the header above contains a line with 'inDegrees', this indicates whether rotational values are in degrees (yes) or radians (no).

endheader
time	pelvis_tilt	pelvis_list	pelvis_rotation	pelvis_tx	pelvis_ty	pelvis_tz	hip_flexion_r	hip_adduction_r	hip_rotation_r	knee_angle_r	knee_angle_r_beta	ankle_angle_r	subtalar_angle_r	mtp_angle_r	hip_flexion_l	hip_adduction_l	hip_rotation_l	knee_angle_l	knee_angle_l_beta	ankle_angle_l	subtalar_angle_l	mtp_angle_l	lumbar_extension	lumbar_bending	lumbar_rotation	arm_flex_r	arm_add_r	arm_rot_r	elbow_flex_r	pro_sup_r	arm_flex_l	arm_add_l	arm_rot_l	elbow_flex_l	pro_sup_l
      0.00000000	     -1.14679698	     -0.21699097	     10.39388510	      1.11349375	      0.94436751	     -0.02674358	      0.86745587	     -7.11365660	     -1.12204004	      2.34142929	      0.04086565	      3.72571498	    -10.38544130	     -6.30329870	     -0.21428112	     -4.03927263	     -2.45824724	      4.37633271	      0.07638142	      5.48247053	    -10.74438937	     -6.30329870	     -5.46672531	     -2.56219102	     -1.54668207	     50.14795838	     16.71474264	     67.52050063	    112.29967075	    102.94185722	     32.78858855	     10.66554672	     59.32070092	    119.25560722	    107.33014499
      0.01666670	     -2.92069952	     -1.46437631	      9.56557756	      1.11560819	      0.93731561	     -0.02601627	      2.53528540	     -6.12666099	     -0.52575372	      1.83933196	      0.03210240	      5.37587023	     -7.43306149	     -6.64374488	      1.67838358	     -5.01346551	     -4.49298979	      3.91537194	      0.06833613	      6.48118658	     -9.84814910	     -6.64374488	     -2.53631074	     -1.55403053	     -0.35268772	     51.25398565	     16.55224821	     69.23557411	    114.29906115	    102.91824221	     32.11638203	     11.20659950	     61.36686892	    120.58921536	    103.08360779
      0.03333330	     -3.64556418	     -1.46394475	      8.70068178	      1.11624897	      0.94101884	     -0.02555482	      3.27303224	     -6.42744599	     -0.18337628	      1.26438647	      0.02206771	      5.45590693	     -6.65396964	     -6.67052946	      2.00302183	     -4.84803510	     -6.26209930	      3.21476401	      0.05610822	      6.52186830	     -8.99857576	     -6.67052946	     -1.76911319	     -1.78021489	      0.69741283	     50.51760492	     16.38794692	     71.50809552	    115.04570325	    103.00608138	     31.16423629	     10.85900425	     61.81163045	    121.40544598	    102.48579869
      0.05000000	     -3.74159429	     -1.27031746	      8.34155145	      1.11607410	      0.94031896	     -0.02493609	      3.34152517	     -6.70576819	      0.28994216	      0.91162269	      0.01591082	      5.89933275	     -5.90084835	     -7.07355912	      1.45410655	     -4.66158129	     -7.16494496	      2.27973208	      0.03978883	      6.40633618	     -8.18256874	     -7.07355912	     -1.59349932	     -2.15123433	      1.47011764	     50.17129602	     16.25915095	     72.88450753	    114.82197290	    101.57722933	     31.57302766	     11.35606990	     62.56928321	    120.46485076	     97.08225934
      0.06666670	     -3.78569289	     -1.17206062	      7.81150013	      1.11590698	      0.93975055	     -0.02474952	      3.50661773	     -6.85013474	      0.65052442	      0.79581295	      0.01388956	      6.12098661	     -5.50152052	     -7.30097348	      1.02972790	     -4.55972344	     -7.76054150	      1.72601048	      0.03012457	      6.62179668	     -7.37776042	     -7.30097348	     -1.45811812	     -2.10839722	      2.01744592	     50.03410368	     16.29671798	     73.96801146	    114.32378909	    100.32826351	     31.49989037	     11.76030994	     63.12421019	    120.01819751	     94.47652322
      0.08333330	     -3.73061568	     -1.08796937	      7.52525670	      1.11928029	      0.94001680	     -0.02122085	      3.39875599	     -6.80529649	      1.12168598	      0.68747560	      0.01199871	      6.27981730	     -5.22673459	     -7.30513656	      0.65296259	     -4.54301070	     -8.08002676	      1.37620421	      0.02401929	      6.54097339	     -7.14172570	     -7.30513656	     -1.25034790	     -2.20548024	      2.41536606	     49.74952861	     16.37297609	     74.21986764	    113.36042771	    100.19303881	     31.06736296	     12.01605239	     63.69357488	    120.21920851	     94.25011614
      0.10000000	     -3.68865380	     -1.03321266	      7.36270871	      1.11895202	      0.93932661	     -0.02071179	      3.29467744	     -6.77065561	      1.36896765	      0.64460357	      0.01125045	      6.41357773	     -5.13061435	     -7.42089281	      0.39093679	     -4.54993545	     -8.47827356	      1.18592241	      0.02069825	      6.67264852	     -6.62585016	     -7.42089281	     -1.07282909	     -2.21325030	      2.88927554	     49.87665933	     16.34862401	     74.19881063	    112.56005431	     98.17785413	     30.80001332	     12.38040400	     64.58089010	    120.51330439	     90.64351081
      0.11666670	     -3.61394663	     -0.94188807	      7.30288606	      1.11845770	      0.94366298	     -0.02066920	      3.14652253	     -6.78624349	      1.53765484	      0.58832240	      0.01026816	      6.35992356	     -5.01437977	     -7.42118682	      0.19054686	     -4.51612446	     -8.51575183	      1.06997774	      0.01867463	      6.47352281	     -6.53475509	     -7.42118682	     -1.05624381	     -2.30562115	      2.89854126	     49.56943366	     16.14819233	     74.32328661	    112.36869735	     98.17435838	     30.39155781	     12.39270737	     64.85135207	    120.58105232	     90.61797946
      0.13333330	     -3.50101666	     -0.88030981	      7.08819678	      1.11828012	      0.94121662	     -0.02076045	      3.05523612	     -6.81143815	      1.74663909	      0.61115673	      0.01066670	      6.39970264	     -4.94182105	     -7.48384038	     -0.11064534	     -4.50753587	     -8.83667583	      0.95806067	      0.01672131	      6.51922835	     -6.13304510	     -7.48384038	     -1.16933481	     -2.15405141	      3.17267725	     49.60357710	     16.20865971	     74.01234831	    112.35726116	     97.66978651	     30.33156890	     12.53069508	     65.15727791	    120.64599830	     87.39222053
      0.15000000	     -3.50895344	     -0.83928035	      6.96286536	      1.11450164	      0.94017737	     -0.02350907	      3.14069819	     -6.92400420	      1.78799641	      0.60086534	      0.01048708	      6.38292172	     -4.91590082	     -7.48385353	     -0.12646999	     -4.42561240	     -8.78588326	      0.93563391	      0.01632989	      6.50649645	     -6.09295561	     -7.48385353	     -1.21399011	     -1.98411168	      3.07657154	     49.66325085	     16.13599838	     73.93740587	    112.39905920	     97.66606974	     30.36884550	     12.57008403	     65.13030932	    120.64105453	     87.38579428
      0.16666670	     -3.33811074	     -0.81281494	      6.78100252	      1.11370265	      0.93789234	     -0.01741131	      3.13530754	     -6.88057057	      2.12929539	      0.60686240	      0.01059175	      6.45366732	     -4.97456363	     -7.48411762	     -0.34920583	     -4.47588442	     -8.91406293	      0.83405746	      0.01455705	      6.55240767	     -5.94376694	     -7.48411762	     -1.50269717	     -1.95106682	      3.14260475	     50.05506398	     16.16211986	     73.18892677	    112.57643960	     97.61391566	     30.83457032	     12.43837370	     64.45763008	    120.62059515	     87.16207059
      0.18333330	     -3.41576753	     -0.80784233	      6.68284333	      1.11015201	      0.93735705	     -0.02026187	      3.40130956	     -6.95034899	      2.21214238	      0.63485398	      0.01108029	      6.37330315	     -4.94833159	     -7.48419434	     -0.18517578	     -4.43834865	     -8.93084986	      0.79407967	      0.01385930	      6.52788995	     -5.87829030	     -7.48419434	     -1.61454056	     -1.81484286	      3.05965403	     50.40364407	     16.20261933	     72.90644266	    112.71908320	     97.59809465	     31.27696634	     12.37306302	     64.22139663	    120.53184954	     87.07056765
      0.20000000	     -3.27337009	     -0.70454304	      6.56136532	      1.10996254	      0.94270150	     -0.02062895	      3.41491257	     -7.06727286	      2.36635382	      0.62435706	      0.01089709	      6.36098465	     -4.95552252	     -7.48711957	     -0.28739486	     -4.35545986	     -9.02220224	      0.75440480	      0.01316685	      6.42022336	     -5.69469376	     -7.48711957	     -1.96293455	     -1.77441934	      3.12858497	     50.51006833	     16.06044040	     73.09671837	    113.17365594	     94.49483894	     31.45210786	     12.17264702	     64.16880756	    120.67686030	     84.53948114
      0.21666670	     -3.17236008	     -0.71073761	      6.55665739	      1.11424426	      0.94280817	     -0.02301377	      3.29755909	     -7.09931263	      2.42313593	      0.61070854	      0.01065887	      6.20922933	     -4.92882363	     -7.48721138	     -0.40043229	     -4.35361427	     -9.05723688	      0.73205774	      0.01277682	      6.30236917	     -5.63400709	     -7.48721138	     -2.01752530	     -1.51525085	      3.03200907	     50.03072327	     16.02762139	     73.43396953	    113.41393663	     94.62688947	     31.20885087	     12.08892933	     64.21869295	    120.80144065	     84.47071214
      0.23333330	     -3.04822488	     -0.70521105	      6.55961657	      1.11348315	      0.94296768	     -0.01743173	      3.15851838	     -7.04991418	      2.51589915	      0.61123947	      0.01066814	      6.22599962	     -4.90855367	     -7.48728902	     -0.54166817	     -4.40640841	     -9.04293107	      0.71758080	      0.01252415	      6.22555722	     -5.56507217	     -7.48728902	     -2.08617846	     -1.42190049	      3.19825094	     49.77638052	     16.10306348	     73.58772114	    113.50527767	     94.71667548	     30.82222609	     11.85808750	     64.30467322	    121.06067957	     84.41397350
      0.25000000	     -2.88326670	     -0.69554298	      6.56008308	      1.11328400	      0.94482257	     -0.01699770	      2.96795879	     -6.99345315	      2.48613654	      0.59498560	      0.01038446	      6.27214643	     -4.70071261	     -7.49519942	     -0.72560410	     -4.49341979	     -9.15547575	      0.70709180	      0.01234108	      6.13616031	     -5.37988917	     -7.49519942	     -2.24272000	     -1.24725839	      3.21360152	     49.71944250	     16.34371364	     73.82088526	    113.29248771	     96.53246220	     30.49244281	     11.46485891	     64.26020281	    121.61223096	     82.36581632
      0.26666670	     -2.69250547	     -0.65463523	      6.58776959	      1.11306303	      0.94277906	     -0.01735711	      2.72312147	     -6.98864810	      2.50500277	      0.58205371	      0.01015875	      6.20453777	     -4.81275177	     -7.49900912	     -0.94134570	     -4.52897276	     -9.30323721	      0.71976315	      0.01256224	      6.09598814	     -5.07841529	     -7.49900912	     -2.34239517	     -1.23211092	      3.31482185	     49.64056545	     16.43581683	     74.08570482	    113.47077260	     96.22981214	     30.57650486	     11.57527669	     64.14407318	    121.37917583	     82.17961405
